<?xml version="1.0" standalone="no"?>
<!DOCTYPE svg PUBLIC "-//W3C//DTD SVG 20010904//EN"
 "http://www.w3.org/TR/2001/REC-SVG-20010904/DTD/svg10.dtd">
<svg version="1.0" xmlns="http://www.w3.org/2000/svg"
 width="500.000000pt" height="500.000000pt" viewBox="0 0 500.000000 500.000000"
 preserveAspectRatio="xMidYMid meet">
<metadata>
Created by potrace 1.11, written by Peter Selinger 2001-2013
</metadata>
<g transform="translate(0.000000,500.000000) scale(0.100000,-0.100000)"
fill="#000000" stroke="none">
<path d="M2329 4996 c-2 -2 -38 -6 -79 -10 -41 -3 -86 -8 -100 -11 -13 -3 -42
-7 -65 -11 -22 -3 -67 -12 -100 -19 -33 -8 -71 -16 -85 -19 -14 -3 -49 -12
-77 -21 -29 -8 -74 -21 -100 -29 -70 -20 -280 -106 -333 -136 -8 -5 -44 -24
-80 -42 -66 -33 -303 -188 -352 -230 -15 -13 -42 -34 -59 -48 -48 -36 -258
-246 -310 -309 -24 -29 -49 -58 -54 -65 -6 -6 -21 -28 -35 -48 -14 -21 -28
-38 -32 -38 -5 0 -8 -4 -8 -8 0 -4 -29 -51 -64 -104 -34 -53 -69 -111 -76
-127 -7 -17 -16 -31 -21 -31 -5 0 -9 -8 -9 -18 0 -10 -6 -24 -12 -31 -7 -6
-13 -15 -14 -19 0 -4 -15 -38 -33 -77 -57 -121 -120 -292 -136 -365 -1 -8 -10
-40 -19 -70 -9 -30 -28 -122 -42 -205 -22 -125 -27 -186 -29 -365 -3 -226 7
-337 46 -530 11 -58 22 -109 23 -115 13 -51 21 -78 38 -130 11 -33 21 -67 23
-75 19 -86 170 -399 260 -536 141 -217 351 -453 531 -597 105 -84 422 -289
453 -293 3 0 38 -15 76 -33 120 -56 335 -136 335 -125 0 2 13 -2 29 -10 16 -9
31 -13 34 -10 3 3 14 1 24 -4 10 -6 32 -12 48 -15 17 -3 64 -12 105 -21 233
-47 564 -56 829 -21 18 3 88 16 155 31 123 26 130 27 156 36 8 3 56 18 105 33
233 74 513 217 695 353 25 19 57 43 72 54 88 66 309 280 378 367 19 24 47 58
61 75 40 49 186 273 206 317 9 21 20 39 25 39 4 0 8 5 8 10 0 6 20 52 44 103
39 83 112 268 122 307 2 8 10 40 19 70 9 30 18 64 20 75 3 11 7 31 10 45 20
87 24 107 35 176 41 254 32 645 -20 878 -5 22 -7 43 -4 47 2 4 0 9 -5 11 -5 1
-11 19 -15 38 -3 19 -12 60 -21 90 -9 30 -18 62 -20 70 -8 38 -82 224 -126
318 -26 56 -48 105 -48 109 1 3 -3 9 -8 12 -4 3 -17 22 -27 41 -10 19 -49 80
-85 134 -36 55 -70 107 -76 115 -9 15 -58 77 -115 146 -36 44 -260 266 -298
295 -18 14 -45 35 -60 48 -74 63 -312 211 -441 274 -128 62 -318 138 -383 153
-13 2 -48 12 -78 20 -30 8 -64 17 -75 19 -11 2 -40 9 -65 14 -127 29 -280 45
-466 48 -111 1 -203 1 -205 0z m-1174 -1620 c50 -3 100 -8 112 -10 12 -3 43
-7 70 -11 193 -26 501 -110 658 -180 17 -7 73 -31 125 -53 52 -22 121 -52 153
-67 49 -23 62 -26 83 -16 40 18 67 111 32 111 -20 0 -48 43 -48 72 0 31 39 78
65 78 8 0 15 6 15 14 0 20 16 24 85 21 77 -3 75 -3 75 -19 0 -8 11 -17 25 -20
60 -15 72 -112 17 -138 -22 -11 -26 -19 -24 -43 5 -38 26 -72 51 -80 12 -3 42
4 73 18 115 53 147 66 253 109 139 57 377 135 465 152 14 3 36 7 50 10 14 3
36 8 50 11 41 9 62 12 120 20 30 4 64 9 75 11 115 22 487 20 613 -2 131 -24
291 -114 327 -184 16 -30 13 -112 -4 -118 -6 -2 -11 -8 -11 -14 0 -15 -58 -95
-96 -133 -53 -53 -118 -81 -255 -110 -68 -14 -146 -32 -174 -39 -27 -8 -70
-17 -95 -21 -25 -4 -54 -9 -65 -12 -20 -4 -187 -15 -215 -14 -55 2 -171 11
-200 16 -106 17 -111 19 -222 49 -51 14 -131 40 -178 57 -162 58 -234 81 -314
97 -89 19 -94 19 -149 8 -37 -7 -38 -8 -22 -26 10 -11 20 -19 24 -18 3 1 35
-13 71 -29 36 -17 117 -47 180 -66 213 -65 293 -89 304 -92 6 -1 18 -5 26 -8
15 -5 217 -55 255 -63 11 -2 106 -22 212 -44 105 -22 195 -40 200 -39 4 1 10
0 13 -1 7 -2 30 -7 65 -13 57 -9 184 -57 234 -88 69 -42 147 -131 171 -197 33
-87 33 -144 3 -209 -26 -55 -92 -133 -112 -133 -6 0 -11 -4 -11 -8 0 -9 -83
-45 -140 -62 -70 -21 -108 -25 -240 -25 -113 0 -147 4 -209 23 -134 42 -342
167 -486 292 -58 50 -253 247 -300 302 -63 74 -101 120 -139 168 -50 62 -46
57 -109 143 -31 42 -58 77 -60 77 -2 0 -3 -57 -4 -127 0 -115 -8 -347 -19
-538 -2 -38 -3 -88 -2 -110 1 -55 -1 -145 -7 -235 -2 -41 -4 -94 -4 -117 0
-24 -5 -118 -11 -210 -6 -93 -13 -199 -15 -238 -12 -182 -17 -247 -21 -268 -3
-12 -7 -52 -9 -90 -5 -85 -12 -107 -35 -107 -23 0 -37 40 -34 100 1 25 -2 61
-7 80 -5 20 -11 74 -13 120 -11 183 -17 277 -21 315 -4 36 -12 192 -21 430 -2
44 -5 99 -7 123 -2 23 -1 60 3 82 4 22 5 42 2 45 -3 3 -7 38 -8 78 -1 39 -6
151 -10 247 -4 96 -8 230 -8 298 0 67 -3 122 -6 122 -3 0 -21 -24 -40 -53 -19
-28 -42 -61 -52 -72 -9 -11 -53 -67 -99 -125 -132 -167 -318 -361 -439 -459
-36 -29 -74 -60 -84 -68 -79 -64 -297 -184 -381 -209 -83 -25 -281 -29 -382
-9 -82 17 -177 54 -203 78 -11 9 -23 17 -27 17 -14 0 -73 73 -95 118 -27 57
-29 111 -8 182 52 173 219 289 465 325 17 3 41 7 55 10 14 2 36 7 50 9 203 39
536 115 612 140 23 8 122 37 218 66 186 56 281 90 344 126 38 22 38 22 16 34
-35 19 -126 13 -225 -15 -49 -14 -98 -27 -109 -30 -10 -2 -25 -10 -34 -17 -8
-7 -18 -12 -21 -12 -8 2 -8 2 -131 -40 -89 -30 -163 -52 -205 -60 -5 -2 -35
-8 -65 -14 -91 -19 -111 -22 -205 -28 -109 -7 -99 -7 -105 -5 -3 1 -44 4 -93
6 -48 2 -95 6 -105 9 -9 3 -37 8 -61 11 -25 3 -67 12 -95 20 -28 9 -67 18 -86
21 -83 13 -209 47 -256 68 -28 13 -71 44 -95 69 -56 57 -119 163 -119 200 0
65 62 130 175 182 95 45 171 63 295 71 58 3 106 7 107 8 4 3 184 -2 268 -8z"/>
</g>
</svg>
